<svg width="21" height="22" viewBox="0 0 21 22" fill="none" xmlns="http://www.w3.org/2000/svg">
<path d="M6.70055 13.3186C6.40034 13.934 6.27275 14.4493 6.26457 14.483C6.2202 14.6662 6.29962 14.8556 6.45859 14.9532C6.54562 15.0066 8.6097 16.2529 10.3235 15.5456C10.4607 15.489 10.5945 15.427 10.7244 15.3602C9.26293 14.9955 7.89321 14.2293 6.70055 13.3186Z" fill="#78C0DE"/>
<path d="M6.73866 7.74815C6.74198 7.75078 6.89036 7.87091 7.08686 8.06436C8.68353 6.92709 10.5582 6.07952 12.5193 6.07954C12.952 6.07946 13.3882 6.10548 13.8262 6.15684C13.6018 5.75344 13.2285 5.33244 12.628 4.93216C11.4498 4.14676 9.92948 4.74434 8.73477 5.49657C7.60642 6.20701 6.7397 7.06892 6.70337 7.10525C6.52256 7.28607 6.53704 7.58565 6.73866 7.74815Z" fill="#78C0DE"/>
<path d="M5.51266 12.3129C5.33046 12.1419 5.06891 11.8856 4.90181 11.6988C4.46062 11.2058 4.46057 10.4623 4.90226 9.96877C5.01661 9.84122 5.24531 9.60596 5.51261 9.35515C5.04363 9.00011 4.46775 8.45361 3.92524 7.63978C3.77418 7.41333 3.45306 7.38081 3.25995 7.57391C2.61498 8.21888 2.26016 8.9963 2.28644 9.70676C2.31415 10.455 2.31417 11.2136 2.28646 11.9613C2.26016 12.6718 2.61498 13.4492 3.25995 14.0941C3.45273 14.2869 3.77406 14.2551 3.92522 14.0282C4.46777 13.2145 5.04367 12.6679 5.51266 12.3129Z" fill="#78C0DE"/>
<path d="M15.3492 14.0807C14.041 12.576 14.0383 9.10293 15.3456 7.5913C15.3607 7.57384 15.3513 7.584 15.5492 7.38612C14.5325 7.09279 13.5147 6.94386 12.5194 6.94404C10.3062 6.944 8.14223 8.19517 6.49078 9.63574C6.07693 9.99694 5.71734 10.3545 5.54585 10.5458C5.39899 10.7099 5.39899 10.9582 5.54588 11.1223C5.91384 11.5337 6.67669 12.2391 7.49744 12.8345C8.75236 13.7438 10.2017 14.4772 11.7325 14.6727C11.7394 14.6665 12.0085 14.7176 12.5483 14.7238C13.5303 14.721 14.5436 14.5747 15.5308 14.2904L15.3492 14.0807Z" fill="#78C0DE"/>
<path d="M19.8426 11.81C20.0467 11.5527 20.2305 11.221 20.2546 10.8904C20.3083 10.164 19.5006 9.42023 18.9138 8.98753C18.1848 8.4499 17.3078 8.00833 16.4671 7.69102L15.99 8.16804C14.9739 9.36296 14.9815 12.3401 16.0022 13.5141L16.4209 13.9973C17.5849 13.5637 19.0791 12.7852 19.8426 11.81ZM16.7023 10.4705C16.6334 10.2515 16.7547 10.0033 16.99 9.9318C17.2129 9.85772 17.4842 9.9944 17.5393 10.2607C17.5614 10.3685 17.5405 10.4849 17.4749 10.5851C17.2635 10.8938 16.805 10.811 16.7023 10.4705Z" fill="#78C0DE"/>
</svg>
